<svg xmlns="http://www.w3.org/2000/svg" viewBox="0 0 128 128">
  <defs>
    <linearGradient id="b" x1="0" y1="0" x2="1" y2="1"><stop offset="0" stop-color="#08275f"/><stop offset="1" stop-color="#1599ef"/></linearGradient>
    <linearGradient id="g" x1="0" y1="0" x2="1" y2="1"><stop offset="0" stop-color="#f5c542"/><stop offset="1" stop-color="#d99900"/></linearGradient>
  </defs>
  <rect width="128" height="128" rx="26" fill="#f8fbff"/>
  <path d="M61 15a48 48 0 1 0 30 86l18 17h18L99 91a48 48 0 0 0 10-28 48 48 0 0 0-48-48Zm0 14a34 34 0 1 1 0 68 34 34 0 0 1 0-68Z" fill="#071f4f"/>
  <path d="M61 36 84 45v19c0 18-10 28-23 35-13-7-23-17-23-35V45l23-9Z" fill="none" stroke="url(#b)" stroke-width="5"/>
  <rect x="47" y="63" width="6" height="18" rx="1" fill="#0b56bd"/>
  <rect x="58" y="55" width="6" height="26" rx="1" fill="#1479dd"/>
  <rect x="69" y="48" width="6" height="33" rx="1" fill="#24a4f2"/>
  <path d="M40 76 55 89 87 60" fill="none" stroke="url(#g)" stroke-width="7" stroke-linecap="round" stroke-linejoin="round"/>
</svg>